<svg id="Layer_1" data-name="Layer 1" xmlns="http://www.w3.org/2000/svg" viewBox="0 0 3112 4097.01"><defs><style>.cls-1{fill:#fff;}.cls-2{opacity:0.2;}.cls-10,.cls-11,.cls-12,.cls-3,.cls-4,.cls-5,.cls-6,.cls-7,.cls-8,.cls-9{fill:none;stroke-linecap:round;stroke-linejoin:round;stroke-width:10px;}.cls-3{stroke:#9469bd;}.cls-4{stroke:#95ece5;}.cls-5{stroke:#ffb201;}.cls-6{stroke:#f7712e;}.cls-7{stroke:#ff7c76;}.cls-8{stroke:#ff9894;}.cls-9{stroke:#721344;}.cls-10{stroke:#ffc0bd;}.cls-11{stroke:#9d7bbd;}.cls-12{stroke:#ffafab;}</style></defs><rect class="cls-1" width="3112" height="4084.61"/><g class="cls-2"><line class="cls-3" x1="702.54" y1="512.46" x2="651.05" y2="464.18"/><line class="cls-3" x1="652.65" y1="514.07" x2="700.94" y2="462.59"/><line class="cls-4" x1="1828.78" y1="2886.9" x2="1897.4" y2="2870.4"/><line class="cls-4" x1="1871.34" y1="2912.98" x2="1854.84" y2="2844.35"/><line class="cls-3" x1="135.23" y1="1667.01" x2="83.74" y2="1618.72"/><line class="cls-3" x1="85.34" y1="1668.62" x2="133.63" y2="1617.14"/><line class="cls-5" x1="164.25" y1="414.89" x2="112.77" y2="366.6"/><line class="cls-5" x1="114.36" y1="416.5" x2="162.65" y2="365.01"/><line class="cls-6" x1="1996.53" y1="2782.19" x2="2048.01" y2="2733.91"/><line class="cls-6" x1="2046.42" y1="2783.8" x2="1998.13" y2="2732.32"/><line class="cls-7" x1="838.41" y1="773.83" x2="889.9" y2="725.55"/><line class="cls-7" x1="888.3" y1="775.44" x2="840.01" y2="723.96"/><line class="cls-4" x1="1482.67" y1="4065.93" x2="1414.04" y2="4049.43"/><line class="cls-4" x1="1440.1" y1="4092.01" x2="1456.61" y2="4023.37"/><line class="cls-6" x1="806.44" y1="3764.02" x2="855.67" y2="3814.6"/><line class="cls-6" x1="805.76" y1="3813.94" x2="856.34" y2="3764.7"/><polygon class="cls-3" points="1083.09 601.67 1070.51 531.98 1016.48 577.72 962.41 623.45 1029.03 647.39 1095.66 671.35 1083.09 601.67"/><polygon class="cls-3" points="279.74 3924.05 287.27 3853.64 344.45 3895.36 401.67 3937.09 336.94 3965.76 272.21 3994.45 279.74 3924.05"/><polygon class="cls-5" points="1492.73 2752.87 1553.86 2717.13 1554.23 2787.91 1554.63 2858.73 1493.13 2823.66 1431.61 2788.61 1492.73 2752.87"/><polygon class="cls-8" points="1031.94 3243.51 1014 3175 963.68 3224.8 913.32 3274.59 981.61 3293.29 1049.9 3312 1031.94 3243.51"/><polygon class="cls-6" points="450.49 233.37 468.78 164.95 400.42 183.34 332.02 201.71 382.12 251.72 432.21 301.77 450.49 233.37"/><polygon class="cls-9" points="569.85 1251.23 588.14 1182.81 519.78 1201.2 451.38 1219.57 501.49 1269.58 551.58 1319.63 569.85 1251.23"/><path class="cls-10" d="M933.36,372.77a53.72,53.72,0,1,1-53.71-53.72A53.71,53.71,0,0,1,933.36,372.77Z"/><path class="cls-3" d="M952.77,3968.29a53.72,53.72,0,1,0,73.25-20.12A53.71,53.71,0,0,0,952.77,3968.29Z"/><path class="cls-10" d="M559.7,4019.92a53.72,53.72,0,0,0-33.34-102.13"/><path class="cls-3" d="M683.63,3116.46A53.72,53.72,0,0,1,777,3063.32"/><path class="cls-11" d="M117.46,616.65a53.48,53.48,0,1,1,107,0"/><path class="cls-9" d="M337.32,838.79a53.47,53.47,0,1,0,0-106.94"/><path class="cls-12" d="M178,1957.84a53.47,53.47,0,1,1,0-106.94"/><path class="cls-5" d="M735.42,184.51a53.47,53.47,0,1,1,0-106.94"/><path class="cls-5" d="M204.88,1392.87a53.72,53.72,0,1,1-53.72-53.71A53.72,53.72,0,0,1,204.88,1392.87Z"/><path class="cls-6" d="M1401.07,3284.87a53.72,53.72,0,1,1-73.25-20.12A53.71,53.71,0,0,1,1401.07,3284.87Z"/><rect class="cls-12" x="1712.73" y="597.71" width="106.85" height="106.85"/><rect class="cls-12" x="148.18" y="2833.32" width="106.85" height="106.85"/><rect class="cls-9" x="1862.45" y="3360.56" width="106.85" height="106.85" transform="translate(-1998.88 3390.4) rotate(-60.35)"/><rect class="cls-9" x="97.75" y="3688.72" width="106.85" height="106.84" transform="translate(-3175.9 2022.53) rotate(-60.35)"/><rect class="cls-12" x="1269.49" y="142.62" width="106.85" height="106.84" transform="translate(796.64 1425.5) rotate(-75.26)"/><path class="cls-12" d="M669.41,2701.47c-11,20.56-45.58-2.5-59.62,23.75"/><path class="cls-12" d="M715.71,2614.94c-11,20.57-45.58-2.49-59.62,23.75"/><path class="cls-12" d="M669.41,2701.47c11-20.57-27.36-36.54-13.32-62.78"/><path class="cls-12" d="M702.39,2552.17"/><path class="cls-12" d="M715.71,2614.94c11-20.56-27.36-36.53-13.32-62.77"/><path class="cls-5" d="M1072.12,3662.48c-20.27,11.54-37.24-26.41-63.11-11.68"/><path class="cls-5" d="M1157.41,3613.94c-20.27,11.54-37.24-26.4-63.1-11.68"/><path class="cls-5" d="M1072.12,3662.48c20.27-11.54-3.68-45.5,22.19-60.22"/><path class="cls-5" d="M1179.59,3553.72"/><path class="cls-5" d="M1157.41,3613.94c20.26-11.54-3.69-45.5,22.18-60.22"/><path class="cls-7" d="M645.39,888.77c23.32,0,19.3-41.37,49.06-41.37"/><path class="cls-7" d="M547.25,888.77c23.33,0,19.31-41.37,49.07-41.37"/><path class="cls-7" d="M645.39,888.77c-23.33,0-19.31-41.37-49.07-41.37"/><path class="cls-7" d="M498.18,847.4"/><path class="cls-7" d="M547.25,888.77c-23.32,0-19.3-41.37-49.07-41.37"/><path class="cls-6" d="M1639.18,3874.13c-18.59,14.09-40.37-21.3-64.09-3.32"/><path class="cls-6" d="M1717.38,3814.85c-18.59,14.09-40.37-21.3-64.08-3.32"/><path class="cls-6" d="M1639.18,3874.13c18.59-14.09-9.6-44.62,14.12-62.6"/><path class="cls-6" d="M1731.49,3752.24"/><path class="cls-6" d="M1717.38,3814.85c18.59-14.09-9.6-44.63,14.11-62.61"/><path class="cls-12" d="M1161.77,3049.64c0,23.33,41.37,19.31,41.37,49.07"/><path class="cls-12" d="M1161.77,2951.51c0,23.32,41.37,19.3,41.37,49.06"/><path class="cls-12" d="M1161.77,3049.64c0-23.32,41.37-19.3,41.37-49.07"/><path class="cls-12" d="M1203.14,2902.44"/><path class="cls-12" d="M1161.77,2951.51c0-23.32,41.37-19.31,41.37-49.07"/><path class="cls-4" d="M412.8,3533.49c-11.54,20.28,26.4,37.24,11.67,63.11"/><path class="cls-4" d="M461.34,3448.21c-11.54,20.27,26.4,37.23,11.68,63.1"/><path class="cls-4" d="M412.8,3533.49c11.53-20.27,45.49,3.69,60.22-22.18"/><path class="cls-4" d="M521.55,3426"/><path class="cls-4" d="M461.34,3448.21c11.53-20.27,45.49,3.68,60.21-22.19"/><line class="cls-9" x1="1077.78" y1="2656.4" x2="1183.01" y2="2596.51"/><line class="cls-6" x1="702.34" y1="2087.13" x2="807.56" y2="2027.24"/><line class="cls-5" x1="103.54" y1="893.46" x2="202.78" y2="962.82"/><line class="cls-9" x1="1658.39" y1="185.75" x2="1748.4" y2="266.72"/><line class="cls-12" x1="1312.38" y1="4000.87" x2="1207.15" y2="3940.98"/><line class="cls-3" x1="85.13" y1="141.85" x2="170.74" y2="56.24"/><line class="cls-6" x1="529.27" y1="3145.2" x2="422.45" y2="3088.2"/><path class="cls-9" d="M950.7,2946.3a21.16,21.16,0,1,1-8.67-28.63A21.13,21.13,0,0,1,950.7,2946.3Z"/><path class="cls-9" d="M395.33,1516.91a21.15,21.15,0,1,1,6.63-29.16A21.14,21.14,0,0,1,395.33,1516.91Z"/><path class="cls-9" d="M395.21,504.86a21.16,21.16,0,1,1,6.62-29.16A21.15,21.15,0,0,1,395.21,504.86Z"/><line class="cls-9" x1="427.17" y1="1897.68" x2="478.66" y2="1849.39"/><line class="cls-9" x1="477.07" y1="1899.28" x2="428.77" y2="1847.8"/><line class="cls-9" x1="1773.74" y1="1984.04" x2="1722.26" y2="1935.75"/><line class="cls-9" x1="1723.85" y1="1985.64" x2="1772.14" y2="1934.16"/><line class="cls-9" x1="876.36" y1="2340.67" x2="927.85" y2="2292.38"/><line class="cls-9" x1="926.25" y1="2342.28" x2="877.96" y2="2290.79"/><polygon class="cls-5" points="1071.98 2073.9 1107.43 2012.6 1142.77 2073.94 1178.14 2135.29 1107.35 2135.23 1036.54 2135.2 1071.98 2073.9"/><polygon class="cls-12" points="2064.58 1851.62 2125.88 1816.17 2064.55 1780.84 2003.19 1745.47 2003.25 1816.26 2003.28 1887.07 2064.58 1851.62"/><path class="cls-6" d="M208.3,2289.36a53.72,53.72,0,1,0,73.25-20.11A53.71,53.71,0,0,0,208.3,2289.36Z"/><path class="cls-12" d="M138.08,1172.22a53.48,53.48,0,1,0,0-107"/><rect class="cls-3" x="438.25" y="2124.45" width="106.85" height="106.85" transform="translate(-1731.44 1971.35) rotate(-71.97)"/><rect class="cls-9" x="836.33" y="1709.45" width="106.84" height="106.85"/><path class="cls-4" d="M185.17,2134.54a21.16,21.16,0,1,1,6.63-29.16A21.15,21.15,0,0,1,185.17,2134.54Z"/><line class="cls-6" x1="1149.14" y1="1102.26" x2="1218.66" y2="1114.45"/><line class="cls-6" x1="1177.81" y1="1143.13" x2="1189.98" y2="1073.6"/><polygon class="cls-3" points="192.07 2527.3 121.75 2518.84 149.59 2583.92 177.42 2649.04 219.88 2592.39 262.36 2535.75 192.07 2527.3"/><polygon class="cls-6" points="911.06 1193.91 976.65 1167.21 966.96 1237.34 957.28 1307.49 901.39 1264.04 845.47 1220.6 911.06 1193.91"/><polygon class="cls-9" points="596.08 3647.82 587.62 3577.52 652.71 3605.36 717.83 3633.18 661.18 3675.64 604.53 3718.13 596.08 3647.82"/><path class="cls-11" d="M250,3265.19A53.48,53.48,0,1,1,164.51,3201"/><rect class="cls-6" x="1689.69" y="1046.71" width="106.85" height="106.85" transform="translate(-183.21 1833.65) rotate(-53.1)"/><rect class="cls-3" x="1395.31" y="1065.23" width="106.85" height="106.84" transform="translate(-381.45 1093.83) rotate(-36.9)"/><path class="cls-6" d="M1320.6,1623.28c-18.66,14,9.39,44.67-14.41,62.54"/><path class="cls-6" d="M1399.08,1564.37c-18.66,14,9.39,44.66-14.41,62.53"/><path class="cls-6" d="M1320.6,1623.28c18.65-14,40.27,21.49,64.07,3.62"/><path class="cls-6" d="M1463.15,1568"/><path class="cls-6" d="M1399.08,1564.37c18.65-14,40.27,21.48,64.07,3.62"/><line class="cls-3" x1="1217.67" y1="1466.18" x2="1106.95" y2="1417.19"/><path class="cls-4" d="M735.52,1513.12a21.15,21.15,0,1,0,19.34-22.82A21.15,21.15,0,0,0,735.52,1513.12Z"/><path class="cls-4" d="M447.09,2751.62a21.16,21.16,0,1,0,8.66-28.63A21.13,21.13,0,0,0,447.09,2751.62Z"/><line class="cls-3" x1="2503.51" y1="3692.29" x2="2554.99" y2="3740.58"/><line class="cls-3" x1="2553.4" y1="3690.68" x2="2505.11" y2="3742.17"/><line class="cls-3" x1="2966.82" y1="2497.75" x2="3018.3" y2="2546.03"/><line class="cls-3" x1="3016.71" y1="2496.14" x2="2968.42" y2="2547.62"/><line class="cls-5" x1="2955.79" y1="3781.87" x2="3007.28" y2="3830.15"/><line class="cls-5" x1="3005.68" y1="3780.26" x2="2957.39" y2="3831.74"/><line class="cls-6" x1="1690.52" y1="2221.56" x2="1639.04" y2="2269.85"/><line class="cls-6" x1="1640.63" y1="2219.96" x2="1688.92" y2="2271.44"/><line class="cls-7" x1="2367.63" y1="3430.93" x2="2316.15" y2="3479.21"/><line class="cls-7" x1="2317.75" y1="3429.32" x2="2366.04" y2="3480.8"/><line class="cls-6" x1="2399.6" y1="440.73" x2="2350.37" y2="390.15"/><line class="cls-6" x1="2400.29" y1="390.82" x2="2349.71" y2="440.05"/><polygon class="cls-3" points="2122.96 3603.08 2135.53 3672.77 2189.57 3627.04 2243.64 3581.3 2177.01 3557.37 2110.39 3533.41 2122.96 3603.08"/><polygon class="cls-3" points="2926.31 280.71 2918.78 351.12 2861.59 309.39 2804.38 267.67 2869.11 239 2933.84 210.3 2926.31 280.71"/><polygon class="cls-5" points="1635.32 1427.88 1574.18 1463.63 1573.81 1392.84 1573.42 1322.03 1634.92 1357.09 1696.44 1392.15 1635.32 1427.88"/><polygon class="cls-8" points="2127.1 868.25 2145.05 936.75 2195.37 886.96 2245.72 837.16 2177.44 818.47 2109.15 799.75 2127.1 868.25"/><polygon class="cls-6" points="2762.55 3900.39 2744.27 3968.81 2812.63 3950.42 2881.02 3932.05 2830.92 3882.03 2780.83 3831.99 2762.55 3900.39"/><polygon class="cls-9" points="2636.19 2953.53 2617.91 3021.95 2686.27 3003.56 2754.66 2985.19 2704.56 2935.18 2654.47 2885.13 2636.19 2953.53"/><path class="cls-4" d="M1696.39,3392.77a53.71,53.71,0,1,1,73.25,20.12A53.72,53.72,0,0,1,1696.39,3392.77Z"/><path class="cls-10" d="M2272.68,3832a53.72,53.72,0,1,1,53.72,53.71A53.72,53.72,0,0,1,2272.68,3832Z"/><path class="cls-3" d="M2253.28,236.47A53.72,53.72,0,1,0,2180,256.58,53.72,53.72,0,0,0,2253.28,236.47Z"/><path class="cls-10" d="M2646.35,184.84A53.72,53.72,0,0,0,2679.69,287"/><path class="cls-3" d="M2522.41,1088.29a53.72,53.72,0,1,1-93.37,53.14"/><path class="cls-11" d="M3088.58,3588.11a53.47,53.47,0,1,1-106.94,0"/><path class="cls-9" d="M2868.72,3366a53.47,53.47,0,1,0,0,106.94"/><path class="cls-12" d="M3028,2246.92a53.47,53.47,0,1,1,0,106.94"/><path class="cls-5" d="M2451.63,3955.24a53.48,53.48,0,1,1,0,107"/><path class="cls-5" d="M2901.17,2832.89a53.72,53.72,0,1,1,53.71,53.71A53.72,53.72,0,0,1,2901.17,2832.89Z"/><rect class="cls-12" x="1386.47" y="3500.2" width="106.85" height="106.85"/><rect class="cls-12" x="2903.02" y="1273.59" width="106.85" height="106.85"/><rect class="cls-9" x="1236.75" y="737.35" width="106.85" height="106.85" transform="matrix(0.49, -0.87, 0.87, 0.49, -35.25, 1520.92)"/><rect class="cls-9" x="2951.45" y="462.2" width="106.85" height="106.84" transform="translate(1070.44 2872.11) rotate(-60.35)"/><rect class="cls-12" x="1829.7" y="3955.29" width="106.85" height="106.84" transform="translate(-2472.85 4809.58) rotate(-75.26)"/><path class="cls-12" d="M2536.64,1503.29c11-20.57,45.57,2.5,59.62-23.75"/><path class="cls-12" d="M2490.33,1589.81c11-20.56,45.58,2.5,59.62-23.74"/><path class="cls-12" d="M2536.64,1503.29c-11,20.57,27.36,36.54,13.31,62.78"/><path class="cls-12" d="M2503.65,1652.59"/><path class="cls-12" d="M2490.33,1589.81c-11,20.56,27.37,36.54,13.32,62.78"/><path class="cls-5" d="M2133.92,542.28c20.28-11.54,37.24,26.4,63.11,11.68"/><path class="cls-5" d="M2048.63,590.82c20.28-11.54,37.24,26.4,63.11,11.68"/><path class="cls-5" d="M2133.92,542.28c-20.27,11.53,3.69,45.49-22.18,60.22"/><path class="cls-5" d="M2026.45,651"/><path class="cls-5" d="M2048.63,590.82c-20.26,11.54,3.69,45.5-22.18,60.21"/><path class="cls-7" d="M2560.66,3316c-23.33,0-19.31,41.37-49.07,41.37"/><path class="cls-7" d="M2658.79,3316c-23.32,0-19.3,41.36-49.06,41.36"/><path class="cls-7" d="M2560.66,3316c23.32,0,19.31,41.36,49.07,41.36"/><path class="cls-7" d="M2707.86,3357.35"/><path class="cls-7" d="M2658.79,3316c23.33,0,19.3,41.37,49.07,41.36"/><path class="cls-12" d="M2085.27,1204.11c0-23.32-41.36-19.3-41.36-49.06"/><path class="cls-12" d="M2085.27,1302.25c0-23.33-41.36-19.31-41.36-49.06"/><path class="cls-12" d="M2085.27,1204.11c0,23.33-41.36,19.31-41.36,49.08"/><path class="cls-12" d="M2043.91,1351.32"/><path class="cls-12" d="M2085.27,1302.25c0,23.32-41.36,19.3-41.36,49.07"/><path class="cls-4" d="M2846.25,754.26c11.54-20.27-26.4-37.23-11.68-63.1"/><path class="cls-4" d="M2797.71,839.55c11.54-20.27-26.4-37.24-11.68-63.1"/><path class="cls-4" d="M2846.25,754.26c-11.54,20.28-45.5-3.68-60.22,22.19"/><path class="cls-4" d="M2737.49,861.73"/><path class="cls-4" d="M2797.71,839.55c-11.54,20.27-45.5-3.68-60.22,22.18"/><line class="cls-9" x1="2008.27" y1="1486.36" x2="1903.04" y2="1546.25"/><line class="cls-6" x1="2503.71" y1="2117.63" x2="2398.48" y2="2177.51"/><line class="cls-6" x1="1478.71" y1="2117.63" x2="1373.48" y2="2177.51"/><line class="cls-5" x1="3102.51" y1="3311.29" x2="3003.27" y2="3241.93"/><line class="cls-9" x1="1955.68" y1="3807.94" x2="1850.14" y2="3748.61"/><line class="cls-9" x1="1470.66" y1="4092.01" x2="1380.64" y2="4011.04"/><line class="cls-12" x1="1893.67" y1="203.89" x2="1998.9" y2="263.78"/><line class="cls-6" x1="1550.74" y1="659.91" x2="1582.8" y2="776.66"/><line class="cls-3" x1="3077.92" y1="3965.91" x2="2992.3" y2="4051.52"/><line class="cls-6" x1="2676.77" y1="1059.56" x2="2783.59" y2="1116.55"/><path class="cls-9" d="M2285.34,1456.46a21.16,21.16,0,1,1,8.67,28.62A21.15,21.15,0,0,1,2285.34,1456.46Z"/><path class="cls-9" d="M2810.72,2687.84a21.15,21.15,0,1,1-6.63,29.17A21.14,21.14,0,0,1,2810.72,2687.84Z"/><path class="cls-9" d="M2772.84,3647.89a21.15,21.15,0,1,1-6.63,29.17A21.15,21.15,0,0,1,2772.84,3647.89Z"/><line class="cls-9" x1="2778.87" y1="2307.08" x2="2727.39" y2="2355.37"/><line class="cls-9" x1="2728.98" y1="2305.47" x2="2777.27" y2="2356.96"/><line class="cls-9" x1="2329.68" y1="1864.09" x2="2278.2" y2="1912.38"/><line class="cls-9" x1="2279.79" y1="1862.48" x2="2328.09" y2="1913.97"/><polygon class="cls-5" points="2134.06 2130.85 2098.61 2192.16 2063.27 2130.82 2027.91 2069.47 2098.7 2069.53 2169.5 2069.56 2134.06 2130.85"/><polygon class="cls-3" points="1684.9 463.11 1703.19 531.53 1634.83 513.14 1566.43 494.77 1616.54 444.76 1666.63 394.71 1684.9 463.11"/><polygon class="cls-12" points="1217.47 2406.14 1156.16 2441.58 1217.5 2476.92 1278.85 2512.29 1278.79 2441.5 1278.76 2370.69 1217.47 2406.14"/><path class="cls-6" d="M3070.74,1895.39a53.71,53.71,0,1,0-73.25,20.12A53.71,53.71,0,0,0,3070.74,1895.39Z"/><path class="cls-12" d="M3080,2984.54a53.47,53.47,0,1,0,0,106.94"/><rect class="cls-6" x="1551.42" y="1709.36" width="106.85" height="106.85" transform="translate(-203.36 209.29) rotate(-7.02)"/><rect class="cls-3" x="2660.95" y="1973.46" width="106.85" height="106.85" transform="translate(-53.09 3980.66) rotate(-71.97)"/><rect class="cls-9" x="2262.87" y="2388.46" width="106.84" height="106.85"/><path class="cls-4" d="M3020.88,2070.22a21.15,21.15,0,1,1-6.63,29.16A21.14,21.14,0,0,1,3020.88,2070.22Z"/><line class="cls-6" x1="2056.91" y1="3102.49" x2="1987.38" y2="3090.31"/><line class="cls-6" x1="2028.24" y1="3061.63" x2="2016.06" y2="3131.16"/><polygon class="cls-3" points="2868.98 1652.46 2939.29 1660.92 2911.45 1595.83 2883.62 1530.71 2841.17 1587.36 2798.68 1644.01 2868.98 1652.46"/><polygon class="cls-6" points="2294.99 3010.85 2229.39 3037.54 2239.09 2967.42 2248.77 2897.27 2304.65 2940.72 2360.57 2984.16 2294.99 3010.85"/><polygon class="cls-9" points="2609.96 556.93 2618.42 627.24 2553.33 599.4 2488.21 571.57 2544.86 529.12 2601.51 486.63 2609.96 556.93"/><path class="cls-11" d="M2967,1014.57a53.48,53.48,0,1,1,85.53,64.21"/><rect class="cls-3" x="1550.88" y="3080.68" width="106.85" height="106.84" transform="translate(-1560.32 1590.88) rotate(-36.9)"/><path class="cls-3" d="M1604.61,2559.65c15.3,17.61,43.88-12.56,63.41,9.91"/><path class="cls-3" d="M1540.24,2485.58c15.3,17.6,43.89-12.56,63.41,9.9"/><path class="cls-3" d="M1604.61,2559.65c-15.3-17.6,18.56-41.7-1-64.17"/><path class="cls-3" d="M1539.29,2421.41"/><path class="cls-3" d="M1540.24,2485.58c-15.29-17.61,18.57-41.71-1-64.17"/><line class="cls-3" x1="1900.37" y1="2428.58" x2="2011.09" y2="2477.57"/><path class="cls-4" d="M2470.53,2691.64a21.16,21.16,0,1,0-19.34,22.81A21.15,21.15,0,0,0,2470.53,2691.64Z"/><path class="cls-4" d="M2759,1453.13a21.16,21.16,0,1,0-8.67,28.63A21.16,21.16,0,0,0,2759,1453.13Z"/></g><line class="cls-3" x1="683.54" y1="495.46" x2="632.05" y2="447.18"/><line class="cls-3" x1="633.65" y1="497.07" x2="681.94" y2="445.59"/><line class="cls-4" x1="1809.78" y1="2869.9" x2="1878.4" y2="2853.4"/><line class="cls-4" x1="1852.34" y1="2895.98" x2="1835.84" y2="2827.35"/><line class="cls-3" x1="116.23" y1="1650.01" x2="64.74" y2="1601.72"/><line class="cls-3" x1="66.34" y1="1651.62" x2="114.63" y2="1600.14"/><line class="cls-5" x1="145.25" y1="397.89" x2="93.77" y2="349.6"/><line class="cls-5" x1="95.36" y1="399.5" x2="143.65" y2="348.01"/><line class="cls-6" x1="1977.53" y1="2765.19" x2="2029.01" y2="2716.91"/><line class="cls-6" x1="2027.42" y1="2766.8" x2="1979.13" y2="2715.32"/><line class="cls-7" x1="819.41" y1="756.83" x2="870.9" y2="708.55"/><line class="cls-7" x1="869.3" y1="758.44" x2="821.01" y2="706.96"/><line class="cls-4" x1="1463.67" y1="4048.93" x2="1395.04" y2="4032.43"/><line class="cls-4" x1="1421.1" y1="4075.01" x2="1437.61" y2="4006.37"/><line class="cls-6" x1="787.44" y1="3747.02" x2="836.67" y2="3797.6"/><line class="cls-6" x1="786.76" y1="3796.94" x2="837.34" y2="3747.7"/><polygon class="cls-3" points="1064.09 584.67 1051.51 514.98 997.48 560.72 943.41 606.45 1010.03 630.39 1076.66 654.35 1064.09 584.67"/><polygon class="cls-3" points="260.74 3907.05 268.27 3836.64 325.45 3878.36 382.67 3920.09 317.94 3948.76 253.21 3977.45 260.74 3907.05"/><polygon class="cls-5" points="1473.73 2735.87 1534.86 2700.13 1535.23 2770.91 1535.63 2841.73 1474.13 2806.66 1412.61 2771.61 1473.73 2735.87"/><polygon class="cls-8" points="1012.94 3226.51 995 3158 944.68 3207.8 894.32 3257.59 962.61 3276.29 1030.9 3295 1012.94 3226.51"/><polygon class="cls-6" points="431.49 216.37 449.78 147.95 381.42 166.34 313.02 184.71 363.12 234.72 413.21 284.77 431.49 216.37"/><polygon class="cls-9" points="550.85 1234.23 569.14 1165.81 500.78 1184.2 432.38 1202.57 482.49 1252.58 532.58 1302.63 550.85 1234.23"/><path class="cls-10" d="M914.36,355.77a53.72,53.72,0,1,1-53.71-53.72A53.71,53.71,0,0,1,914.36,355.77Z"/><path class="cls-3" d="M933.77,3951.29a53.72,53.72,0,1,0,73.25-20.12A53.71,53.71,0,0,0,933.77,3951.29Z"/><path class="cls-10" d="M540.7,4002.92a53.72,53.72,0,0,0-33.34-102.13"/><path class="cls-3" d="M664.63,3099.46A53.72,53.72,0,0,1,758,3046.32"/><path class="cls-11" d="M98.46,599.65a53.48,53.48,0,1,1,107,0"/><path class="cls-9" d="M318.32,821.79a53.47,53.47,0,1,0,0-106.94"/><path class="cls-12" d="M159,1940.84a53.47,53.47,0,1,1,0-106.94"/><path class="cls-5" d="M716.42,167.51a53.47,53.47,0,1,1,0-106.94"/><path class="cls-5" d="M185.88,1375.87a53.72,53.72,0,1,1-53.72-53.71A53.72,53.72,0,0,1,185.88,1375.87Z"/><path class="cls-6" d="M1382.07,3267.87a53.72,53.72,0,1,1-73.25-20.12A53.71,53.71,0,0,1,1382.07,3267.87Z"/><rect class="cls-12" x="1693.73" y="580.71" width="106.85" height="106.85"/><rect class="cls-12" x="129.18" y="2816.32" width="106.85" height="106.85"/><rect class="cls-9" x="1843.45" y="3343.56" width="106.85" height="106.85" transform="translate(-1993.71 3365.29) rotate(-60.35)"/><rect class="cls-9" x="78.75" y="3671.72" width="106.85" height="106.84" transform="translate(-3170.73 1997.43) rotate(-60.35)"/><rect class="cls-12" x="1250.49" y="125.62" width="106.85" height="106.84" transform="translate(798.91 1394.46) rotate(-75.26)"/><path class="cls-12" d="M650.41,2684.47c-11,20.56-45.58-2.5-59.62,23.75"/><path class="cls-12" d="M696.71,2597.94c-11,20.57-45.58-2.49-59.62,23.75"/><path class="cls-12" d="M650.41,2684.47c11-20.57-27.36-36.54-13.32-62.78"/><path class="cls-12" d="M683.39,2535.17"/><path class="cls-12" d="M696.71,2597.94c11-20.56-27.36-36.53-13.32-62.77"/><path class="cls-5" d="M1053.12,3645.48c-20.27,11.54-37.24-26.41-63.11-11.68"/><path class="cls-5" d="M1138.41,3596.94c-20.27,11.54-37.24-26.4-63.1-11.68"/><path class="cls-5" d="M1053.12,3645.48c20.27-11.54-3.68-45.5,22.19-60.22"/><path class="cls-5" d="M1160.59,3536.72"/><path class="cls-5" d="M1138.41,3596.94c20.26-11.54-3.69-45.5,22.18-60.22"/><path class="cls-7" d="M626.39,871.77c23.32,0,19.3-41.37,49.06-41.37"/><path class="cls-7" d="M528.25,871.77c23.33,0,19.31-41.37,49.07-41.37"/><path class="cls-7" d="M626.39,871.77c-23.33,0-19.31-41.37-49.07-41.37"/><path class="cls-7" d="M479.18,830.4"/><path class="cls-7" d="M528.25,871.77c-23.32,0-19.3-41.37-49.07-41.37"/><path class="cls-6" d="M1620.18,3857.13c-18.59,14.09-40.37-21.3-64.09-3.32"/><path class="cls-6" d="M1698.38,3797.85c-18.59,14.09-40.37-21.3-64.08-3.32"/><path class="cls-6" d="M1620.18,3857.13c18.59-14.09-9.6-44.62,14.12-62.6"/><path class="cls-6" d="M1712.49,3735.24"/><path class="cls-6" d="M1698.38,3797.85c18.59-14.09-9.6-44.63,14.11-62.61"/><path class="cls-12" d="M1142.77,3032.64c0,23.33,41.37,19.31,41.37,49.07"/><path class="cls-12" d="M1142.77,2934.51c0,23.32,41.37,19.3,41.37,49.06"/><path class="cls-12" d="M1142.77,3032.64c0-23.32,41.37-19.3,41.37-49.07"/><path class="cls-12" d="M1184.14,2885.44"/><path class="cls-12" d="M1142.77,2934.51c0-23.32,41.37-19.31,41.37-49.07"/><path class="cls-4" d="M393.8,3516.49c-11.54,20.28,26.4,37.24,11.67,63.11"/><path class="cls-4" d="M442.34,3431.21c-11.54,20.27,26.4,37.23,11.68,63.1"/><path class="cls-4" d="M393.8,3516.49c11.53-20.27,45.49,3.69,60.22-22.18"/><path class="cls-4" d="M502.55,3409"/><path class="cls-4" d="M442.34,3431.21c11.53-20.27,45.49,3.68,60.21-22.19"/><line class="cls-9" x1="1058.78" y1="2639.4" x2="1164.01" y2="2579.51"/><line class="cls-6" x1="683.34" y1="2070.13" x2="788.56" y2="2010.24"/><line class="cls-5" x1="84.54" y1="876.46" x2="183.78" y2="945.82"/><line class="cls-9" x1="1639.39" y1="168.75" x2="1729.4" y2="249.72"/><line class="cls-12" x1="1293.38" y1="3983.87" x2="1188.15" y2="3923.98"/><line class="cls-3" x1="66.13" y1="124.85" x2="151.74" y2="39.24"/><line class="cls-6" x1="510.27" y1="3128.2" x2="403.45" y2="3071.2"/><path class="cls-9" d="M931.7,2929.3a21.16,21.16,0,1,1-8.67-28.63A21.13,21.13,0,0,1,931.7,2929.3Z"/><path class="cls-9" d="M376.33,1499.91a21.15,21.15,0,1,1,6.63-29.16A21.14,21.14,0,0,1,376.33,1499.91Z"/><path class="cls-9" d="M376.21,487.86a21.16,21.16,0,1,1,6.62-29.16A21.15,21.15,0,0,1,376.21,487.86Z"/><line class="cls-9" x1="408.17" y1="1880.68" x2="459.66" y2="1832.39"/><line class="cls-9" x1="458.07" y1="1882.28" x2="409.77" y2="1830.8"/><line class="cls-9" x1="1754.74" y1="1967.04" x2="1703.26" y2="1918.75"/><line class="cls-9" x1="1704.85" y1="1968.64" x2="1753.14" y2="1917.16"/><line class="cls-9" x1="857.36" y1="2323.67" x2="908.85" y2="2275.38"/><line class="cls-9" x1="907.25" y1="2325.28" x2="858.96" y2="2273.79"/><polygon class="cls-5" points="1052.98 2056.9 1088.43 1995.6 1123.77 2056.94 1159.14 2118.29 1088.35 2118.23 1017.54 2118.2 1052.98 2056.9"/><polygon class="cls-12" points="2045.58 1834.62 2106.88 1799.17 2045.55 1763.84 1984.19 1728.47 1984.25 1799.26 1984.28 1870.07 2045.58 1834.62"/><path class="cls-6" d="M189.3,2272.36a53.72,53.72,0,1,0,73.25-20.11A53.71,53.71,0,0,0,189.3,2272.36Z"/><path class="cls-12" d="M119.08,1155.22a53.48,53.48,0,1,0,0-107"/><rect class="cls-3" x="419.25" y="2107.45" width="106.85" height="106.85" transform="translate(-1728.39 1941.55) rotate(-71.97)"/><rect class="cls-9" x="817.33" y="1692.45" width="106.84" height="106.85"/><path class="cls-4" d="M166.17,2117.54a21.16,21.16,0,1,1,6.63-29.16A21.15,21.15,0,0,1,166.17,2117.54Z"/><line class="cls-6" x1="1130.14" y1="1085.26" x2="1199.66" y2="1097.45"/><line class="cls-6" x1="1158.81" y1="1126.13" x2="1170.98" y2="1056.6"/><polygon class="cls-3" points="173.07 2510.3 102.75 2501.84 130.59 2566.92 158.42 2632.04 200.88 2575.39 243.36 2518.75 173.07 2510.3"/><polygon class="cls-6" points="892.06 1176.91 957.65 1150.21 947.96 1220.34 938.28 1290.49 882.39 1247.04 826.47 1203.6 892.06 1176.91"/><polygon class="cls-9" points="577.08 3630.82 568.62 3560.52 633.71 3588.36 698.83 3616.18 642.18 3658.64 585.53 3701.13 577.08 3630.82"/><path class="cls-11" d="M231,3248.19A53.48,53.48,0,1,1,145.51,3184"/><rect class="cls-6" x="1670.69" y="1029.71" width="106.85" height="106.85" transform="translate(-177.21 1811.66) rotate(-53.1)"/><rect class="cls-3" x="1376.31" y="1048.23" width="106.85" height="106.84" transform="translate(-375.05 1079.01) rotate(-36.9)"/><path class="cls-6" d="M1301.6,1606.28c-18.66,14,9.39,44.67-14.41,62.54"/><path class="cls-6" d="M1380.08,1547.37c-18.66,14,9.39,44.66-14.41,62.53"/><path class="cls-6" d="M1301.6,1606.28c18.65-14,40.27,21.49,64.07,3.62"/><path class="cls-6" d="M1444.15,1551"/><path class="cls-6" d="M1380.08,1547.37c18.65-14,40.27,21.48,64.07,3.62"/><line class="cls-3" x1="1198.67" y1="1449.18" x2="1087.95" y2="1400.19"/><path class="cls-4" d="M716.52,1496.12a21.15,21.15,0,1,0,19.34-22.82A21.15,21.15,0,0,0,716.52,1496.12Z"/><path class="cls-4" d="M428.09,2734.62a21.16,21.16,0,1,0,8.66-28.63A21.13,21.13,0,0,0,428.09,2734.62Z"/><line class="cls-3" x1="2484.51" y1="3675.29" x2="2535.99" y2="3723.58"/><line class="cls-3" x1="2534.4" y1="3673.68" x2="2486.11" y2="3725.17"/><line class="cls-3" x1="2947.82" y1="2480.75" x2="2999.3" y2="2529.03"/><line class="cls-3" x1="2997.71" y1="2479.14" x2="2949.42" y2="2530.62"/><line class="cls-5" x1="2936.79" y1="3764.87" x2="2988.28" y2="3813.15"/><line class="cls-5" x1="2986.68" y1="3763.26" x2="2938.39" y2="3814.74"/><line class="cls-6" x1="1671.52" y1="2204.56" x2="1620.04" y2="2252.85"/><line class="cls-6" x1="1621.63" y1="2202.96" x2="1669.92" y2="2254.44"/><line class="cls-7" x1="2348.63" y1="3413.93" x2="2297.15" y2="3462.21"/><line class="cls-7" x1="2298.75" y1="3412.32" x2="2347.04" y2="3463.8"/><line class="cls-6" x1="2380.6" y1="423.73" x2="2331.37" y2="373.15"/><line class="cls-6" x1="2381.29" y1="373.82" x2="2330.71" y2="423.05"/><polygon class="cls-3" points="2103.96 3586.08 2116.53 3655.77 2170.57 3610.04 2224.64 3564.3 2158.01 3540.37 2091.39 3516.41 2103.96 3586.08"/><polygon class="cls-3" points="2907.31 263.71 2899.78 334.12 2842.59 292.39 2785.38 250.66 2850.11 222 2914.84 193.3 2907.31 263.71"/><polygon class="cls-5" points="1616.32 1410.88 1555.18 1446.63 1554.81 1375.84 1554.42 1305.03 1615.92 1340.09 1677.44 1375.15 1616.32 1410.88"/><polygon class="cls-8" points="2108.1 851.25 2126.05 919.75 2176.37 869.96 2226.72 820.16 2158.44 801.47 2090.15 782.75 2108.1 851.25"/><polygon class="cls-6" points="2743.55 3883.39 2725.27 3951.81 2793.63 3933.42 2862.02 3915.05 2811.92 3865.03 2761.83 3814.99 2743.55 3883.39"/><polygon class="cls-9" points="2617.19 2936.53 2598.91 3004.95 2667.27 2986.56 2735.66 2968.19 2685.56 2918.18 2635.47 2868.13 2617.19 2936.53"/><path class="cls-4" d="M1677.39,3375.77a53.71,53.71,0,1,1,73.25,20.12A53.72,53.72,0,0,1,1677.39,3375.77Z"/><path class="cls-10" d="M2253.68,3815a53.72,53.72,0,1,1,53.72,53.71A53.72,53.72,0,0,1,2253.68,3815Z"/><path class="cls-3" d="M2234.28,219.47A53.72,53.72,0,1,0,2161,239.58,53.72,53.72,0,0,0,2234.28,219.47Z"/><path class="cls-10" d="M2627.35,167.84A53.72,53.72,0,0,0,2660.69,270"/><path class="cls-3" d="M2503.41,1071.29a53.72,53.72,0,1,1-93.37,53.14"/><path class="cls-11" d="M3069.58,3571.11a53.47,53.47,0,1,1-106.94,0"/><path class="cls-9" d="M2849.72,3349a53.47,53.47,0,1,0,0,106.94"/><path class="cls-12" d="M3009,2229.92a53.47,53.47,0,1,1,0,106.94"/><path class="cls-5" d="M2432.63,3938.24a53.48,53.48,0,1,1,0,107"/><path class="cls-5" d="M2882.17,2815.89a53.72,53.72,0,1,1,53.71,53.71A53.72,53.72,0,0,1,2882.17,2815.89Z"/><rect class="cls-12" x="1367.47" y="3483.2" width="106.85" height="106.85"/><rect class="cls-12" x="2884.02" y="1256.59" width="106.85" height="106.85"/><rect class="cls-9" x="1217.75" y="720.35" width="106.85" height="106.85" transform="matrix(0.49, -0.87, 0.87, 0.49, -30.08, 1495.81)"/><rect class="cls-9" x="2932.45" y="445.2" width="106.85" height="106.84" transform="translate(1075.61 2847.01) rotate(-60.35)"/><rect class="cls-12" x="1810.7" y="3938.29" width="106.85" height="106.84" transform="translate(-2470.58 4778.53) rotate(-75.26)"/><path class="cls-12" d="M2517.64,1486.29c11-20.57,45.57,2.5,59.62-23.75"/><path class="cls-12" d="M2471.33,1572.81c11-20.56,45.58,2.5,59.62-23.74"/><path class="cls-12" d="M2517.64,1486.29c-11,20.57,27.36,36.54,13.31,62.78"/><path class="cls-12" d="M2484.65,1635.59"/><path class="cls-12" d="M2471.33,1572.81c-11,20.56,27.37,36.54,13.32,62.78"/><path class="cls-5" d="M2114.92,525.28c20.28-11.54,37.24,26.4,63.11,11.68"/><path class="cls-5" d="M2029.63,573.82c20.28-11.54,37.24,26.4,63.11,11.68"/><path class="cls-5" d="M2114.92,525.28c-20.27,11.53,3.69,45.49-22.18,60.22"/><path class="cls-5" d="M2007.45,634"/><path class="cls-5" d="M2029.63,573.82c-20.26,11.54,3.69,45.5-22.18,60.21"/><path class="cls-7" d="M2541.66,3299c-23.33,0-19.31,41.37-49.07,41.37"/><path class="cls-7" d="M2639.79,3299c-23.32,0-19.3,41.36-49.06,41.36"/><path class="cls-7" d="M2541.66,3299c23.32,0,19.31,41.36,49.07,41.36"/><path class="cls-7" d="M2688.86,3340.35"/><path class="cls-7" d="M2639.79,3299c23.33,0,19.3,41.37,49.07,41.36"/><path class="cls-12" d="M2066.27,1187.11c0-23.32-41.36-19.3-41.36-49.06"/><path class="cls-12" d="M2066.27,1285.25c0-23.33-41.36-19.31-41.36-49.06"/><path class="cls-12" d="M2066.27,1187.11c0,23.33-41.36,19.31-41.36,49.08"/><path class="cls-12" d="M2024.91,1334.32"/><path class="cls-12" d="M2066.27,1285.25c0,23.32-41.36,19.3-41.36,49.07"/><path class="cls-4" d="M2827.25,737.26c11.54-20.27-26.4-37.23-11.68-63.1"/><path class="cls-4" d="M2778.71,822.55c11.54-20.27-26.4-37.24-11.68-63.1"/><path class="cls-4" d="M2827.25,737.26c-11.54,20.28-45.5-3.68-60.22,22.19"/><path class="cls-4" d="M2718.49,844.73"/><path class="cls-4" d="M2778.71,822.55c-11.54,20.27-45.5-3.68-60.22,22.18"/><line class="cls-9" x1="1989.27" y1="1469.36" x2="1884.04" y2="1529.25"/><line class="cls-6" x1="2484.71" y1="2100.63" x2="2379.48" y2="2160.51"/><line class="cls-6" x1="1459.71" y1="2100.63" x2="1354.48" y2="2160.51"/><line class="cls-5" x1="3083.51" y1="3294.29" x2="2984.27" y2="3224.93"/><line class="cls-9" x1="1936.68" y1="3790.94" x2="1831.14" y2="3731.61"/><line class="cls-9" x1="1451.66" y1="4075.01" x2="1361.64" y2="3994.04"/><line class="cls-12" x1="1874.67" y1="186.89" x2="1979.9" y2="246.78"/><line class="cls-6" x1="1531.74" y1="642.91" x2="1563.8" y2="759.66"/><line class="cls-3" x1="3058.92" y1="3948.91" x2="2973.3" y2="4034.52"/><line class="cls-6" x1="2657.77" y1="1042.56" x2="2764.59" y2="1099.55"/><path class="cls-9" d="M2266.34,1439.46a21.16,21.16,0,1,1,8.67,28.62A21.15,21.15,0,0,1,2266.34,1439.46Z"/><path class="cls-9" d="M2791.72,2670.84a21.15,21.15,0,1,1-6.63,29.17A21.14,21.14,0,0,1,2791.72,2670.84Z"/><path class="cls-9" d="M2753.84,3630.89a21.15,21.15,0,1,1-6.63,29.17A21.15,21.15,0,0,1,2753.84,3630.89Z"/><line class="cls-9" x1="2759.87" y1="2290.08" x2="2708.39" y2="2338.37"/><line class="cls-9" x1="2709.98" y1="2288.47" x2="2758.27" y2="2339.96"/><line class="cls-9" x1="2310.68" y1="1847.09" x2="2259.2" y2="1895.38"/><line class="cls-9" x1="2260.79" y1="1845.48" x2="2309.09" y2="1896.97"/><polygon class="cls-5" points="2115.06 2113.85 2079.61 2175.16 2044.27 2113.82 2008.91 2052.47 2079.7 2052.53 2150.5 2052.56 2115.06 2113.85"/><polygon class="cls-3" points="1665.9 446.11 1684.19 514.53 1615.83 496.14 1547.43 477.77 1597.54 427.76 1647.63 377.71 1665.9 446.11"/><polygon class="cls-12" points="1198.47 2389.14 1137.16 2424.58 1198.5 2459.92 1259.85 2495.29 1259.79 2424.5 1259.76 2353.69 1198.47 2389.14"/><path class="cls-6" d="M3051.74,1878.39a53.71,53.71,0,1,0-73.25,20.12A53.71,53.71,0,0,0,3051.74,1878.39Z"/><path class="cls-12" d="M3061,2967.54a53.47,53.47,0,1,0,0,106.94"/><rect class="cls-6" x="1532.42" y="1692.36" width="106.85" height="106.85" transform="translate(-201.43 206.85) rotate(-7.02)"/><rect class="cls-3" x="2641.95" y="1956.46" width="106.85" height="106.85" transform="translate(-50.04 3950.86) rotate(-71.97)"/><rect class="cls-9" x="2243.87" y="2371.46" width="106.84" height="106.85"/><path class="cls-4" d="M3001.88,2053.22a21.15,21.15,0,1,1-6.63,29.16A21.14,21.14,0,0,1,3001.88,2053.22Z"/><line class="cls-6" x1="2037.91" y1="3085.49" x2="1968.38" y2="3073.31"/><line class="cls-6" x1="2009.24" y1="3044.63" x2="1997.06" y2="3114.16"/><polygon class="cls-3" points="2849.98 1635.46 2920.29 1643.92 2892.45 1578.83 2864.62 1513.71 2822.17 1570.36 2779.68 1627.01 2849.98 1635.46"/><polygon class="cls-6" points="2275.99 2993.85 2210.39 3020.54 2220.09 2950.42 2229.77 2880.27 2285.65 2923.72 2341.57 2967.16 2275.99 2993.85"/><polygon class="cls-9" points="2590.96 539.93 2599.42 610.24 2534.33 582.4 2469.21 554.57 2525.86 512.12 2582.51 469.63 2590.96 539.93"/><path class="cls-11" d="M2948,997.57a53.48,53.48,0,1,1,85.53,64.21"/><rect class="cls-3" x="1531.88" y="3063.68" width="106.85" height="106.84" transform="translate(-1553.92 1576.07) rotate(-36.9)"/><path class="cls-3" d="M1585.61,2542.65c15.3,17.61,43.88-12.56,63.41,9.91"/><path class="cls-3" d="M1521.24,2468.58c15.3,17.6,43.89-12.56,63.41,9.9"/><path class="cls-3" d="M1585.61,2542.65c-15.3-17.6,18.56-41.7-1-64.17"/><path class="cls-3" d="M1520.29,2404.41"/><path class="cls-3" d="M1521.24,2468.58c-15.29-17.61,18.57-41.71-1-64.17"/><line class="cls-3" x1="1881.37" y1="2411.58" x2="1992.09" y2="2460.57"/><path class="cls-4" d="M2451.53,2674.64a21.16,21.16,0,1,0-19.34,22.81A21.15,21.15,0,0,0,2451.53,2674.64Z"/><path class="cls-4" d="M2740,1436.13a21.16,21.16,0,1,0-8.67,28.63A21.16,21.16,0,0,0,2740,1436.13Z"/></svg>