<svg width="23" height="23" viewBox="0 0 23 23" fill="none" xmlns="http://www.w3.org/2000/svg">
<path d="M20.2188 2.90625H17.3125V2.125C17.3125 1.7106 17.1084 1.31317 16.745 1.02015C16.3817 0.72712 15.8889 0.5625 15.375 0.5625H7.625C7.11114 0.5625 6.61833 0.72712 6.25498 1.02015C5.89163 1.31317 5.6875 1.7106 5.6875 2.125V2.90625H2.78125C2.26739 2.90625 1.77458 3.07087 1.41123 3.3639C1.04788 3.65692 0.84375 4.05435 0.84375 4.46875V20.875C0.84375 21.2894 1.04788 21.6868 1.41123 21.9799C1.77458 22.2729 2.26739 22.4375 2.78125 22.4375H20.2188C20.7326 22.4375 21.2254 22.2729 21.5888 21.9799C21.9521 21.6868 22.1562 21.2894 22.1562 20.875V4.46875C22.1562 4.05435 21.9521 3.65692 21.5888 3.3639C21.2254 3.07087 20.7326 2.90625 20.2188 2.90625ZM7.625 2.125H15.375V5.25H7.625V2.125ZM20.2188 20.875H2.78125V4.46875H5.6875V6.8125H17.3125V4.46875H20.2188V20.875Z" fill="white"/>
</svg>
